HIERARCHY
ROOT Hips
{
	OFFSET 0.000000 0.000000 0.000000
	CHANNELS 6 Xposition Yposition Zposition Zrotation Yrotation Xrotation 
	JOINT LHipJoint
	{
		OFFSET 0.000000 0.000000 0.000000
		CHANNELS 3 Zrotation Yrotation Xrotation
		JOINT LeftUpLeg
		{
			OFFSET 1.363060 -1.794630 0.839290
			CHANNELS 3 Zrotation Yrotation Xrotation
			JOINT LeftLeg
			{
				OFFSET 2.448110 -6.726130 0.000000
				CHANNELS 3 Zrotation Yrotation Xrotation
				JOINT LeftFoot
				{
					OFFSET 2.562200 -7.039590 0.000000
					CHANNELS 3 Zrotation Yrotation Xrotation
					JOINT LeftToeBase
					{
						OFFSET 0.157640 -0.433110 2.322550
						CHANNELS 3 Zrotation Yrotation Xrotation
						End Site
						{
							OFFSET 0.000000 0.000000 0.000000
						}
					}
				}
			}
		}
	}
	JOINT RHipJoint
	{
		OFFSET 0.000000 0.000000 0.000000
		CHANNELS 3 Zrotation Yrotation Xrotation
		JOINT RightUpLeg
		{
			OFFSET -1.305520 -1.794630 0.839290
			CHANNELS 3 Zrotation Yrotation Xrotation
			JOINT RightLeg
			{
				OFFSET -2.542530 -6.985550 0.000000
				CHANNELS 3 Zrotation Yrotation Xrotation
				JOINT RightFoot
				{
					OFFSET -2.568260 -7.056230 0.000000
					CHANNELS 3 Zrotation Yrotation Xrotation
					JOINT RightToeBase
					{
						OFFSET -0.164730 -0.452590 2.363150
						CHANNELS 3 Zrotation Yrotation Xrotation
						End Site
						{
							OFFSET 0.000000 0.000000 0.000000
						}
					}
				}
			}
		}
	}
	JOINT LowerBack
	{
		OFFSET 0.000000 0.000000 0.000000
		CHANNELS 3 Zrotation Yrotation Xrotation
		JOINT Spine
		{
			OFFSET 0.028270 2.035590 -0.193380
			CHANNELS 3 Zrotation Yrotation Xrotation
			JOINT Spine1
			{
				OFFSET 0.056720 2.048850 -0.042750
				CHANNELS 3 Zrotation Yrotation Xrotation
				JOINT Neck
				{
					OFFSET 0.000000 0.000000 0.000000
					CHANNELS 3 Zrotation Yrotation Xrotation
					JOINT Neck1
					{
						OFFSET -0.054170 1.746240 0.172020
						CHANNELS 3 Zrotation Yrotation Xrotation
						JOINT Head
						{
							OFFSET 0.104070 1.761360 -0.123970
							CHANNELS 3 Zrotation Yrotation Xrotation
							End Site
							{
								OFFSET 0.000000 0.000000 0.000000
							}
						}
					}
				}
				JOINT LeftShoulder
				{
					OFFSET 0.000000 0.000000 0.000000
					CHANNELS 3 Zrotation Yrotation Xrotation
					JOINT LeftArm
					{
						OFFSET 3.362410 1.200890 -0.311210
						CHANNELS 3 Zrotation Yrotation Xrotation
						JOINT LeftForeArm
						{
							OFFSET 4.983000 -0.000000 -0.000000
							CHANNELS 3 Zrotation Yrotation Xrotation
							JOINT LeftHand
							{
								OFFSET 3.483560 -0.000000 -0.000000
								CHANNELS 3 Zrotation Yrotation Xrotation
								JOINT LeftFingerBase
								{
									OFFSET 0.000000 0.000000 0.000000
									CHANNELS 3 Zrotation Yrotation Xrotation
									JOINT LeftHandIndex1
									{
										OFFSET 0.715260 -0.000000 -0.000000
										CHANNELS 3 Zrotation Yrotation Xrotation
										End Site
										{
											OFFSET 0.000000 0.000000 0.000000
										}
									}
								}
								JOINT LThumb
								{
									OFFSET 0.000000 0.000000 0.000000
									CHANNELS 3 Zrotation Yrotation Xrotation
									End Site
									{
										OFFSET 0.000000 0.000000 0.000000
									}
								}
							}
						}
					}
				}
				JOINT RightShoulder
				{
					OFFSET 0.000000 0.000000 0.000000
					CHANNELS 3 Zrotation Yrotation Xrotation
					JOINT RightArm
					{
						OFFSET -3.136600 1.374050 -0.404650
						CHANNELS 3 Zrotation Yrotation Xrotation
						JOINT RightForeArm
						{
							OFFSET -5.241900 -0.000000 -0.000000
							CHANNELS 3 Zrotation Yrotation Xrotation
							JOINT RightHand
							{
								OFFSET -3.444170 -0.000000 -0.000000
								CHANNELS 3 Zrotation Yrotation Xrotation
								JOINT RightFingerBase
								{
									OFFSET 0.000000 0.000000 0.000000
									CHANNELS 3 Zrotation Yrotation Xrotation
									JOINT RightHandIndex1
									{
										OFFSET -0.622530 -0.000000 -0.000000
										CHANNELS 3 Zrotation Yrotation Xrotation
										End Site
										{
											OFFSET 0.000000 0.000000 0.000000
										}
									}
								}
								JOINT RThumb
								{
									OFFSET 0.000000 0.000000 0.000000
									CHANNELS 3 Zrotation Yrotation Xrotation
									End Site
									{
										OFFSET 0.000000 0.000000 0.000000
									}
								}
							}
						}
					}
				}
			}
		}
	}
}
MOTION
Frames: 6
Frame Time: 0.008333
0.616362 17.804848 -13.974655 -1.837264 -0.703818 7.011490 -1.310474 0.157485 1.048516 -16.408893 4.903204 -14.450797 -0.380833 5.625464 15.660970 -0.228608 2.779960 -1.697982 0.019200 0.893800 2.456800 -0.832971 -0.559360 0.038292 20.429667 1.121871 -12.142450 -0.323867 -6.560096 18.679332 -0.054506 -1.562710 -6.141615 -0.501600 -4.540600 12.602700 1.143087 -0.534765 -3.583288 1.518704 -0.877716 -2.567119 1.340836 -0.755479 6.762551 -3.338321 -0.196155 -10.625175 3.234518 0.177763 17.459574 0.351800 0.415000 6.764100 9.232836 5.419221 0.373447 -97.776633 -5.748895 23.837124 5.242830 -12.686292 -0.464619 -0.174834 -0.690404 1.394346 25.675021 -5.092551 -2.086200 -7.125000 0.000000 0.000000 -0.608500 25.188400 0.291700 -8.266388 -4.938701 -0.010796 94.491429 3.209541 9.432945 -8.631630 19.593880 -1.653637 0.731963 0.894823 34.824513 -21.475460 -23.945024 9.544300 7.125000 0.000000 0.000000 8.847900 -56.566700 -2.522700
0.617433 17.803215 -13.983426 -1.841897 -0.715503 7.019746 -1.308041 0.150420 1.040874 -16.410034 4.886639 -14.539524 -0.371133 5.662353 15.759045 -0.230096 2.788365 -1.700877 0.018143 0.869082 2.388736 -0.835994 -0.553111 0.035656 20.429525 1.178833 -12.217292 -0.334207 -6.592883 18.767308 -0.051503 -1.582957 -6.147688 -0.498171 -4.524966 12.558421 1.149391 -0.534537 -3.506777 1.520731 -0.874844 -2.561809 1.347598 -0.754724 6.748053 -3.345281 -0.193074 -10.667336 3.247034 0.184692 17.546152 0.360603 0.420140 6.808779 9.232929 5.419484 0.372200 -97.780603 -5.741818 23.897996 5.259802 -12.717854 -0.469102 -0.173729 -0.690394 1.331495 25.662116 -5.090194 -2.084031 -7.125000 0.000000 0.000000 -0.618413 25.191132 0.296401 -8.265860 -4.933771 -0.012397 94.478440 3.228256 9.462668 -8.642616 19.609558 -1.657702 0.731437 0.894858 34.783820 -21.471602 -23.938376 9.540177 7.125000 0.000000 0.000000 8.848401 -56.558663 -2.521102
0.618400 17.801378 -13.992920 -1.851495 -0.735940 7.028956 -1.305090 0.142776 1.032533 -16.405691 4.868452 -14.640501 -0.359254 5.706175 15.876026 -0.232582 2.801818 -1.713059 0.017194 0.847220 2.328506 -0.839296 -0.546429 0.033179 20.434541 1.242999 -12.294853 -0.344333 -6.625641 18.854946 -0.048322 -1.603244 -6.149311 -0.493235 -4.503007 12.496174 1.158222 -0.532253 -3.419733 1.523223 -0.869142 -2.557458 1.353798 -0.752504 6.725243 -3.327713 -0.191867 -10.709471 3.237258 0.190332 17.637091 0.355285 0.424486 6.856278 9.234478 5.420226 0.370598 -97.778082 -5.718450 23.982793 5.280055 -12.756367 -0.474428 -0.172233 -0.690550 1.254942 25.654929 -5.078015 -2.077554 -7.125000 0.000000 0.000000 -0.623906 25.204735 0.298800 -8.263965 -4.928054 -0.014391 94.465515 3.229960 9.491202 -8.660347 19.636545 -1.664464 0.732223 0.893186 34.758902 -21.503563 -23.887898 9.538510 7.125000 0.000000 0.000000 8.789200 -56.512985 -2.494311
0.619371 17.799390 -14.003488 -1.874546 -0.766445 7.040685 -1.301307 0.134428 1.022862 -16.387244 4.848785 -14.756881 -0.345289 5.757096 16.012450 -0.236002 2.820782 -1.733452 0.016794 0.835824 2.297110 -0.843007 -0.539009 0.030275 20.453927 1.316295 -12.375373 -0.354082 -6.657496 18.939716 -0.045398 -1.620935 -6.145302 -0.488500 -4.481648 12.435767 1.181093 -0.526096 -3.322192 1.526179 -0.858353 -2.551343 1.353865 -0.747263 6.703049 -3.287550 -0.188739 -10.754366 3.211333 0.198419 17.722652 0.339142 0.430041 6.902932 9.237174 5.421519 0.368869 -97.763052 -5.681587 24.133149 5.310752 -12.816155 -0.482120 -0.169893 -0.691234 1.107417 25.658110 -5.062644 -2.070222 -7.125000 0.000000 0.000000 -0.621649 25.221941 0.297525 -8.260812 -4.922046 -0.016251 94.452454 3.228388 9.525834 -8.679373 19.665825 -1.671605 0.733060 0.891636 34.734778 -21.537641 -23.845198 9.540435 7.125000 0.000000 0.000000 8.731584 -56.476070 -2.469936
0.620547 17.797511 -14.015204 -1.903582 -0.800685 7.056687 -1.296908 0.125123 1.011677 -16.362740 4.825356 -14.886346 -0.329673 5.813348 16.162740 -0.239817 2.841917 -1.758356 0.016600 0.832262 2.287300 -0.846792 -0.530927 0.026907 20.479171 1.392426 -12.461742 -0.363156 -6.688077 19.020181 -0.042610 -1.636418 -6.135322 -0.484646 -4.463953 12.385605 1.210935 -0.517835 -3.218820 1.528960 -0.844833 -2.542911 1.351249 -0.740132 6.684615 -3.258994 -0.187332 -10.789433 3.196756 0.202580 17.797440 0.329592 0.433667 6.942574 9.239157 5.422456 0.367613 -97.736591 -5.640190 24.342518 5.347979 -12.889023 -0.491127 -0.167315 -0.692294 0.893651 25.675857 -5.064694 -2.072563 -7.125000 0.000000 0.000000 -0.608341 25.219590 0.291179 -8.258222 -4.916516 -0.017334 94.436577 3.229757 9.572238 -8.696480 19.692533 -1.677847 0.732992 0.891452 34.695839 -21.549148 -23.840614 9.544575 7.125000 0.000000 0.000000 8.716321 -56.473595 -2.465031
0.621770 17.795942 -14.028329 -1.941870 -0.834017 7.083081 -1.292033 0.114393 0.998529 -16.328368 4.796980 -15.034037 -0.313237 5.872869 16.321394 -0.243022 2.860173 -1.781204 0.016600 0.832284 2.287485 -0.850783 -0.521743 0.022755 20.514421 1.474720 -12.560717 -0.371586 -6.718052 19.097449 -0.039320 -1.654510 -6.122098 -0.482903 -4.456146 12.363680 1.251053 -0.508849 -3.113909 1.532309 -0.830682 -2.531449 1.348658 -0.732135 6.674492 -3.271388 -0.186896 -10.813666 3.217829 0.202836 17.860703 0.342505 0.435531 6.973591 9.239032 5.422634 0.367174 -97.700508 -5.602817 24.594125 5.390297 -12.971645 -0.501477 -0.164437 -0.693519 0.633891 25.686788 -5.075083 -2.078344 -7.125000 0.000000 0.000000 -0.600136 25.208358 0.287406 -8.257230 -4.912049 -0.017317 94.412911 3.243401 9.633112 -8.705424 19.706416 -1.681046 0.731595 0.892975 34.629458 -21.527154 -23.873291 9.545361 7.125000 0.000000 0.000000 8.755018 -56.502570 -2.482246
